<?xml version="1.0" encoding="UTF-8" ?>
<!DOCTYPE svg PUBLIC "-//W3C//DTD SVG 1.1//EN" "http://www.w3.org/Graphics/SVG/1.1/DTD/svg11.dtd">
<svg width="1600pt" height="800pt" viewBox="0 0 1600 800" version="1.1" xmlns="http://www.w3.org/2000/svg">
<g id="#268bd2ff">
<path fill="#268bd2" opacity="1.00" d=" M 0.00 0.00 L 123.00 0.00 C 123.00 209.00 123.01 418.00 123.00 627.00 C 82.00 627.00 41.00 627.00 0.00 627.00 L 0.00 0.00 Z" />
<path fill="#268bd2" opacity="1.00" d=" M 612.00 0.00 L 749.00 0.00 C 749.00 236.67 748.99 473.33 749.00 710.00 C 748.99 740.00 749.00 770.00 749.00 800.00 L 559.00 800.00 C 559.00 769.99 559.00 739.99 559.00 709.99 C 576.65 710.07 594.30 710.01 611.96 709.97 C 612.05 473.31 611.97 236.66 612.00 0.00 Z" />
<path fill="#268bd2" opacity="1.00" d=" M 1084.00 0.00 L 1315.00 0.00 C 1314.99 217.33 1315.01 434.67 1314.99 652.00 C 1315.04 671.32 1315.04 690.64 1314.96 709.97 C 1237.98 710.01 1161.02 710.05 1084.05 709.95 C 1083.94 690.63 1083.95 671.31 1084.00 652.00 C 1083.99 434.67 1084.00 217.33 1084.00 0.00 Z" />
</g>
<g id="#d33682ff">
<path fill="#d33682" opacity="1.00" d=" M 123.00 0.00 L 282.00 0.00 C 282.04 217.32 281.93 434.63 282.05 651.95 C 311.37 652.13 340.69 651.94 370.01 652.00 C 369.95 671.32 369.95 690.64 370.04 709.96 C 382.35 710.02 394.67 710.02 406.98 710.02 C 407.11 726.33 407.01 742.65 406.96 758.97 C 312.32 759.02 217.68 759.04 123.04 758.96 C 122.90 714.97 123.06 670.99 123.00 627.00 C 123.01 418.00 123.00 209.00 123.00 0.00 Z" />
<path fill="#d33682" opacity="1.00" d=" M 971.00 0.00 L 1084.00 0.00 C 1084.00 217.33 1083.99 434.67 1084.00 652.00 C 1068.33 651.98 1052.66 652.01 1037.00 652.00 C 1015.01 651.98 993.03 652.10 971.05 651.95 C 970.93 434.63 971.04 217.32 971.00 0.00 Z" />
<path fill="#d33682" opacity="1.00" d=" M 1315.00 0.00 L 1397.00 0.00 C 1397.04 208.98 1396.93 417.97 1397.05 626.95 C 1432.71 627.13 1468.38 626.93 1504.04 627.00 C 1503.98 635.31 1503.93 643.64 1503.98 651.96 C 1440.98 652.07 1377.99 651.96 1314.99 652.00 C 1315.01 434.67 1314.99 217.33 1315.00 0.00 Z" />
</g>
<g id="#ffb0e1ff">
<path fill="#ffb0e1" opacity="1.00" d=" M 282.00 0.00 L 370.00 0.00 C 370.01 217.33 369.99 434.67 370.01 652.00 C 340.69 651.94 311.37 652.13 282.05 651.95 C 281.93 434.63 282.04 217.32 282.00 0.00 Z" />
<path fill="#ffb0e1" opacity="1.00" d=" M 749.00 0.00 L 829.00 0.00 C 828.97 236.65 829.05 473.31 828.96 709.96 C 817.97 709.99 806.99 710.01 796.01 710.02 C 780.34 709.97 764.67 709.98 749.00 710.00 C 748.99 473.33 749.00 236.67 749.00 0.00 Z" />
</g>
<g id="#002060ff">
<path fill="#002060" opacity="1.00" d=" M 370.00 0.00 L 612.00 0.00 C 611.97 236.66 612.05 473.31 611.96 709.97 C 594.30 710.01 576.65 710.07 559.00 709.99 C 508.33 710.02 457.66 709.96 406.98 710.02 C 394.67 710.02 382.35 710.02 370.04 709.96 C 369.95 690.64 369.95 671.32 370.01 652.00 C 369.99 434.67 370.01 217.33 370.00 0.00 Z" />
<path fill="#002060" opacity="1.00" d=" M 829.00 0.00 L 971.00 0.00 C 971.04 217.32 970.93 434.63 971.05 651.95 C 993.03 652.10 1015.01 651.98 1037.00 652.00 C 1036.93 687.65 1037.12 723.30 1036.95 758.95 C 956.65 759.04 876.35 759.04 796.05 758.95 C 795.98 742.63 795.90 726.33 796.01 710.02 C 806.99 710.01 817.97 709.99 828.96 709.96 C 829.05 473.31 828.97 236.65 829.00 0.00 Z" />
<path fill="#002060" opacity="1.00" d=" M 1397.00 0.00 L 1600.00 0.00 L 1600.00 627.00 C 1568.01 627.00 1536.02 626.99 1504.04 627.00 C 1468.38 626.93 1432.71 627.13 1397.05 626.95 C 1396.93 417.97 1397.04 208.98 1397.00 0.00 Z" />
</g>
</svg>
