<?xml version="1.0" encoding="UTF-8" ?>
<!DOCTYPE svg PUBLIC "-//W3C//DTD SVG 1.1//EN" "http://www.w3.org/Graphics/SVG/1.1/DTD/svg11.dtd">
<svg width="155pt" height="97pt" viewBox="0 0 155 97" version="1.1" xmlns="http://www.w3.org/2000/svg">
<g id="#ffffffff">
<path fill="#ffffff" opacity="1.00" d=" M 121.56 2.42 C 121.69 2.05 121.96 1.32 122.09 0.96 C 129.61 3.51 136.61 8.39 140.38 15.53 C 142.99 20.20 143.81 25.64 143.48 30.92 C 143.08 30.95 142.30 30.99 141.90 31.02 C 142.40 24.92 141.01 18.60 137.37 13.62 C 133.58 8.19 127.74 4.57 121.56 2.42 Z" />
<path fill="#ffffff" opacity="1.00" d=" M 86.85 9.36 C 92.10 9.15 97.49 7.51 100.98 3.35 C 103.58 3.32 106.19 3.32 108.79 3.36 C 112.06 7.98 117.60 10.03 123.09 10.27 C 125.13 11.83 126.76 13.86 128.59 15.65 C 127.53 20.79 129.00 26.42 133.35 29.62 C 133.36 32.14 133.36 34.66 133.35 37.18 C 130.73 39.10 128.71 41.78 127.96 44.97 C 136.37 52.61 144.81 60.22 153.23 67.86 C 154.75 68.90 155.54 71.25 154.09 72.69 C 152.02 75.11 149.96 77.56 147.62 79.72 C 146.13 80.79 144.29 79.96 143.17 78.79 C 134.78 71.18 126.39 63.58 117.98 55.98 C 107.03 69.08 96.29 82.34 85.43 95.50 C 84.15 94.44 82.86 93.38 81.57 92.32 C 90.09 82.00 98.51 71.59 107.10 61.33 C 105.39 61.34 103.68 61.35 101.97 61.34 C 98.29 57.14 92.64 55.63 87.22 55.81 C 85.41 54.00 83.62 52.18 81.87 50.32 C 82.26 45.24 79.85 40.34 75.81 37.31 C 75.81 34.78 75.81 32.24 75.81 29.70 C 77.42 27.78 78.90 25.77 80.31 23.70 C 54.89 44.53 29.50 65.41 4.09 86.26 C 3.03 84.97 1.97 83.69 0.91 82.40 C 27.63 60.46 54.35 38.52 81.07 16.58 C 81.14 16.08 81.28 15.07 81.35 14.57 C 83.23 12.89 84.77 10.78 86.85 9.36 M 97.60 15.79 C 89.24 19.27 84.58 29.57 87.74 38.12 C 90.52 47.14 101.21 52.68 110.14 49.43 C 119.22 46.62 124.77 35.89 121.64 26.88 C 118.86 17.08 106.88 11.47 97.60 15.79 Z" />
<path fill="#ffffff" opacity="1.00" d=" M 139.98 6.46 C 140.26 6.20 140.80 5.67 141.08 5.40 C 145.79 10.08 148.66 16.41 149.15 23.03 C 148.76 23.04 147.98 23.05 147.59 23.06 C 147.11 16.82 144.36 10.91 139.98 6.46 Z" />
<path fill="#ffffff" opacity="1.00" d=" M 101.46 26.67 C 106.01 23.65 112.51 28.70 110.89 33.82 C 110.15 38.05 104.74 40.22 101.21 37.86 C 97.12 35.52 97.26 28.83 101.46 26.67 Z" />
</g>
</svg>
