<?xml version="1.0" encoding="UTF-8" ?>
<!DOCTYPE svg PUBLIC "-//W3C//DTD SVG 1.1//EN" "http://www.w3.org/Graphics/SVG/1.1/DTD/svg11.dtd">
<svg width="456pt" height="456pt" viewBox="0 0 456 456" version="1.1" xmlns="http://www.w3.org/2000/svg">
<g id="#ffffffff">
<path fill="#ffffff" opacity="1.00" d=" M 312.32 0.00 L 312.68 0.00 C 312.73 0.60 312.82 1.81 312.87 2.41 L 313.28 1.63 C 313.81 2.34 314.89 3.78 315.42 4.50 C 281.36 32.11 247.37 59.80 213.32 87.43 C 214.09 88.91 214.85 90.40 215.61 91.89 C 216.68 91.78 217.74 91.67 218.81 91.56 C 219.38 88.56 220.26 85.64 221.38 82.80 C 222.42 82.80 224.50 82.80 225.54 82.80 C 226.67 85.64 227.56 88.56 228.14 91.55 C 229.19 91.67 230.24 91.78 231.29 91.90 C 232.66 89.14 234.30 86.53 236.12 84.04 C 237.48 84.48 238.84 84.93 240.20 85.40 C 240.35 88.39 240.42 91.39 240.33 94.40 C 241.00 94.73 242.34 95.41 243.01 95.74 C 245.09 93.32 247.46 91.16 249.99 89.20 C 251.12 89.89 252.26 90.59 253.40 91.29 C 252.94 94.41 252.21 97.49 251.14 100.47 C 251.99 100.99 252.87 101.46 253.78 101.88 C 256.48 100.51 259.09 98.96 261.86 97.73 C 262.83 98.73 263.80 99.74 264.77 100.76 C 263.39 103.52 261.91 106.23 260.44 108.95 C 260.83 109.50 261.61 110.59 262.00 111.13 C 265.10 110.26 268.25 109.54 271.46 109.10 C 271.99 110.28 272.63 111.42 272.98 112.68 C 271.34 115.32 269.01 117.40 266.75 119.50 C 267.20 120.38 267.65 121.27 268.10 122.16 C 271.12 122.11 274.15 122.17 277.17 122.34 C 277.60 123.66 278.05 124.98 278.49 126.30 C 276.00 128.13 273.38 129.79 270.62 131.19 C 270.68 131.97 270.81 133.51 270.87 134.28 C 273.86 134.88 276.78 135.76 279.64 136.84 C 279.63 138.26 279.62 139.69 279.61 141.12 C 276.76 142.18 273.84 143.07 270.85 143.68 C 270.79 144.48 270.67 146.09 270.61 146.89 C 271.96 147.53 273.31 148.19 274.66 148.85 C 314.21 102.51 353.80 56.20 393.37 9.87 C 394.64 10.96 395.91 12.04 397.18 13.12 C 358.32 58.59 319.49 104.08 280.62 149.53 C 279.18 151.16 278.12 153.05 277.16 154.98 C 274.31 156.58 272.31 159.20 270.26 161.66 C 271.28 162.98 272.30 164.31 273.32 165.63 C 272.58 166.67 271.85 167.72 271.12 168.76 C 269.07 168.50 267.02 168.21 264.99 167.85 C 263.97 169.04 262.94 170.23 261.92 171.43 C 262.87 173.37 263.80 175.33 264.72 177.30 C 263.84 178.18 262.95 179.07 262.07 179.97 C 261.35 179.76 259.91 179.35 259.20 179.14 C 290.21 192.47 320.91 206.55 351.76 220.26 C 355.68 222.58 360.36 222.29 364.59 223.66 C 375.09 226.75 384.04 234.60 388.53 244.58 C 393.25 254.80 393.11 267.08 388.17 277.19 C 382.40 289.49 369.75 297.92 356.26 298.97 C 361.69 303.79 367.09 308.63 372.52 313.46 C 372.02 313.84 371.03 314.60 370.54 314.98 C 386.57 336.29 402.60 357.59 418.63 378.90 C 427.59 379.45 436.46 382.71 443.13 388.81 C 450.77 395.53 455.36 405.39 456.00 415.52 L 456.00 419.40 C 455.42 428.60 451.65 437.61 445.18 444.22 C 438.51 451.23 429.10 455.38 419.47 456.00 L 415.63 456.00 C 405.70 455.41 396.02 451.02 389.29 443.66 C 380.28 434.10 376.77 419.75 380.45 407.13 C 383.69 395.09 393.22 385.17 404.95 381.06 C 374.33 372.89 343.75 364.56 313.13 356.38 C 307.53 363.99 302.05 371.69 296.41 379.28 C 306.65 380.69 316.29 386.21 322.40 394.58 C 330.09 404.78 332.13 418.90 327.59 430.85 C 322.54 445.04 308.52 455.25 293.51 456.00 L 289.64 456.00 C 279.71 455.41 270.02 451.03 263.29 443.66 C 254.28 434.10 250.77 419.76 254.44 407.14 C 257.93 394.18 268.73 383.63 281.71 380.26 C 263.69 372.53 245.91 364.24 227.95 356.36 C 210.19 364.19 192.64 372.53 174.82 380.22 C 184.75 382.82 193.61 389.36 198.76 398.27 C 205.15 408.99 205.71 422.88 200.18 434.07 C 194.15 446.84 180.71 455.44 166.65 456.00 L 163.42 456.00 C 153.27 455.52 143.32 451.11 136.39 443.63 C 127.61 434.41 123.94 420.63 127.15 408.29 C 130.74 393.12 144.37 381.29 159.76 379.32 C 153.87 371.71 148.19 363.94 142.35 356.30 C 111.89 364.52 81.45 372.83 50.99 381.03 C 60.32 384.37 68.38 391.21 72.82 400.10 C 78.48 411.05 78.34 424.71 72.48 435.55 C 66.34 447.36 53.75 455.28 40.49 456.00 L 36.63 456.00 C 26.95 455.42 17.49 451.25 10.79 444.19 C 4.35 437.60 0.61 428.65 0.00 419.50 L 0.00 415.31 C 0.68 405.98 4.61 396.88 11.30 390.29 C 18.18 383.25 27.83 379.42 37.59 378.88 C 52.98 357.66 68.42 336.47 83.86 315.28 C 83.36 314.90 82.36 314.13 81.87 313.75 C 87.22 308.84 92.56 303.91 97.90 298.99 C 82.01 297.92 67.49 286.28 63.43 270.82 C 59.33 256.81 64.23 240.77 75.37 231.36 C 81.87 225.51 90.43 222.74 98.98 221.78 C 129.39 208.32 159.73 194.66 190.13 181.16 C 192.24 180.23 194.30 179.19 196.32 178.06 C 195.25 177.31 194.17 176.56 193.09 175.81 C 189.94 178.10 185.96 180.96 182.17 178.17 C 183.11 174.84 184.77 171.81 186.75 169.00 C 186.00 168.23 185.24 167.45 184.49 166.68 C 181.68 167.79 178.73 168.44 175.74 168.86 C 175.05 167.74 174.36 166.63 173.68 165.51 C 175.42 163.18 177.32 160.95 179.61 159.14 C 179.50 158.30 179.28 156.62 179.17 155.78 C 176.03 155.88 172.89 155.82 169.76 155.62 C 169.33 154.28 168.90 152.95 168.48 151.62 C 170.96 149.79 173.58 148.15 176.34 146.78 C 176.29 146.01 176.18 144.47 176.12 143.70 C 173.15 143.07 170.24 142.19 167.39 141.14 C 167.37 139.71 167.35 138.28 167.34 136.85 C 170.19 135.75 173.12 134.88 176.11 134.28 C 176.17 133.51 176.28 131.96 176.34 131.18 C 173.57 129.79 170.95 128.14 168.46 126.30 C 168.91 124.98 169.36 123.66 169.81 122.34 C 172.89 122.16 175.99 122.11 179.08 122.20 C 179.25 121.39 179.59 119.79 179.75 118.98 C 177.53 117.07 175.54 114.91 173.69 112.65 C 174.36 111.46 175.02 110.27 175.70 109.09 C 178.81 109.60 181.88 110.29 184.95 111.03 C 185.39 110.53 186.27 109.52 186.71 109.02 C 185.01 106.36 183.53 103.57 182.21 100.71 C 183.15 99.74 184.09 98.77 185.03 97.81 C 186.68 98.52 188.34 99.24 189.98 99.98 C 191.47 98.75 192.95 97.52 194.43 96.29 C 194.15 94.60 193.88 92.91 193.62 91.22 C 194.72 90.56 195.82 89.89 196.92 89.23 C 197.98 90.06 199.04 90.89 200.11 91.73 C 204.01 88.76 207.39 85.18 211.48 82.45 C 242.99 56.95 274.40 31.32 305.89 5.79 C 308.12 3.96 310.53 2.30 312.32 0.00 M 217.48 121.65 C 210.54 123.85 205.65 130.79 205.24 137.97 C 204.79 143.73 207.38 149.65 211.94 153.20 C 217.78 157.82 226.50 158.69 232.90 154.67 C 241.58 149.84 244.38 137.36 238.94 129.14 C 234.65 122.07 225.23 119.02 217.48 121.65 M 252.44 181.31 C 252.76 183.11 253.07 184.93 253.34 186.75 C 252.21 187.41 251.09 188.07 249.96 188.73 C 247.47 186.79 245.14 184.65 243.10 182.24 C 242.40 182.59 241.00 183.27 240.30 183.62 C 240.47 186.60 240.37 189.59 240.14 192.58 C 238.87 193.05 237.59 193.50 236.31 193.94 C 233.91 191.38 232.76 187.91 230.27 185.47 C 229.66 197.63 230.17 209.84 230.00 222.02 C 243.88 222.97 256.90 231.82 262.53 244.59 C 267.23 254.77 267.11 267.01 262.21 277.10 C 257.06 287.98 246.53 296.21 234.63 298.26 C 240.58 299.33 246.44 300.88 252.35 302.15 C 252.10 302.73 251.59 303.88 251.34 304.45 C 259.26 308.01 267.19 311.53 275.10 315.10 C 292.90 310.35 310.68 305.48 328.47 300.66 C 328.31 300.05 328.00 298.83 327.84 298.21 C 332.91 297.96 337.97 297.34 343.06 297.37 C 329.96 294.16 319.44 282.97 316.21 269.98 C 313.24 258.71 315.87 246.17 323.04 236.99 C 328.52 229.80 336.63 224.80 345.43 222.82 C 314.41 209.05 283.40 195.24 252.44 181.31 M 196.93 188.81 C 195.51 187.81 193.64 187.06 193.42 185.06 C 165.29 197.80 137.04 210.29 108.84 222.87 C 119.91 225.40 129.74 232.91 134.82 243.10 C 140.21 253.56 140.37 266.50 135.22 277.09 C 130.55 286.82 121.64 294.69 111.10 297.34 C 116.05 297.38 120.98 297.91 125.92 298.17 C 125.77 298.78 125.46 300.00 125.31 300.61 C 142.33 305.19 159.35 309.75 176.36 314.37 C 177.86 314.72 179.46 315.44 180.94 314.57 C 188.35 311.28 195.71 307.87 203.12 304.55 C 202.87 303.98 202.36 302.83 202.11 302.25 C 208.06 300.92 213.97 299.41 219.95 298.21 C 206.02 295.61 194.17 284.59 190.46 270.93 C 186.83 258.52 190.13 244.42 198.81 234.86 C 205.42 227.34 215.06 222.81 225.00 222.03 C 224.99 213.08 225.01 204.14 224.99 195.19 C 224.12 195.20 222.38 195.22 221.51 195.23 C 220.28 192.43 219.30 189.51 218.89 186.47 C 217.81 186.33 216.73 186.20 215.65 186.06 C 214.33 188.85 212.68 191.47 210.74 193.88 C 209.43 193.47 208.13 193.05 206.83 192.63 C 206.58 189.62 206.48 186.61 206.67 183.60 C 205.97 183.26 204.57 182.58 203.86 182.24 C 201.78 184.66 199.43 186.83 196.93 188.81 M 93.58 227.73 C 84.48 229.62 76.31 235.50 71.64 243.54 C 63.89 256.21 66.15 273.87 76.84 284.18 C 87.47 295.20 105.89 297.17 118.61 288.65 C 131.59 280.62 137.46 263.17 131.92 248.94 C 126.64 233.69 109.33 224.07 93.58 227.73 M 220.50 227.75 C 211.89 229.56 204.10 234.95 199.36 242.37 C 190.82 255.10 192.79 273.53 203.83 284.17 C 214.46 295.21 232.89 297.18 245.63 288.65 C 258.60 280.61 264.46 263.14 258.91 248.91 C 253.61 233.65 236.26 224.04 220.50 227.75 M 346.54 227.74 C 338.39 229.45 330.96 234.35 326.17 241.16 C 316.94 253.70 318.32 272.57 329.29 283.62 C 339.84 295.09 358.64 297.34 371.59 288.67 C 384.61 280.63 390.49 263.09 384.88 248.83 C 379.55 233.63 362.26 224.06 346.54 227.74 M 99.40 299.06 C 96.29 305.94 93.09 312.78 89.94 319.65 C 89.43 319.29 88.42 318.55 87.91 318.19 C 73.88 337.40 59.99 356.72 45.86 375.86 C 73.43 363.18 101.14 350.77 128.78 338.23 C 123.70 331.48 118.62 324.74 113.55 317.99 C 112.87 318.48 112.20 318.97 111.52 319.46 C 108.25 312.62 104.96 305.80 101.68 298.96 C 101.11 298.99 99.97 299.03 99.40 299.06 M 103.04 298.58 C 108.33 303.75 114.06 308.46 119.52 313.46 C 119.03 313.84 118.03 314.60 117.53 314.98 C 122.83 322.02 128.14 329.06 133.43 336.11 C 141.60 332.40 149.79 328.71 157.96 324.99 C 146.07 319.66 134.18 314.35 122.29 309.01 C 122.04 309.58 121.52 310.71 121.27 311.28 C 115.16 307.10 109.35 302.45 103.04 298.58 M 206.22 311.37 C 205.96 310.80 205.45 309.66 205.20 309.10 C 199.14 311.81 193.12 314.62 187.03 317.27 C 193.30 318.84 199.51 320.64 205.77 322.24 C 207.47 319.92 209.16 317.59 210.86 315.27 C 210.19 314.76 209.53 314.25 208.87 313.75 C 214.17 308.61 220.03 304.02 224.97 298.52 C 218.24 302.01 212.53 307.19 206.22 311.37 M 226.42 299.04 C 223.26 305.84 220.23 312.71 216.96 319.46 C 216.42 319.18 215.34 318.61 214.80 318.33 C 213.51 320.11 212.21 321.90 210.90 323.67 C 216.34 325.02 221.70 326.73 227.17 327.93 C 233.08 326.82 238.80 324.79 244.66 323.42 C 243.28 321.62 241.91 319.81 240.55 317.99 C 239.87 318.48 239.19 318.97 238.52 319.46 C 235.26 312.63 231.96 305.80 228.69 298.97 C 228.12 298.99 226.99 299.02 226.42 299.04 M 230.04 298.58 C 235.33 303.76 241.07 308.46 246.52 313.47 C 246.03 313.84 245.03 314.60 244.53 314.98 C 246.30 317.31 248.05 319.65 249.82 321.99 C 255.77 320.39 261.71 318.71 267.69 317.19 C 261.51 314.57 255.43 311.72 249.29 309.01 C 249.03 309.58 248.52 310.72 248.27 311.28 C 242.16 307.10 236.35 302.45 230.04 298.58 M 333.22 311.37 C 332.97 310.80 332.45 309.66 332.20 309.10 C 320.51 314.38 308.83 319.68 297.15 324.96 C 305.35 328.65 313.57 332.31 321.77 336.00 C 326.80 329.10 331.81 322.18 336.85 315.29 C 336.19 314.77 335.53 314.25 334.87 313.74 C 340.33 308.69 345.85 303.70 351.28 298.61 C 345.07 302.59 339.27 307.16 333.22 311.37 M 352.41 299.04 C 349.28 305.92 346.09 312.78 342.94 319.65 C 342.43 319.29 341.42 318.55 340.91 318.19 C 336.09 324.82 331.26 331.44 326.44 338.08 C 354.27 350.63 382.22 362.90 409.98 375.61 C 395.41 356.48 381.04 337.19 366.55 317.99 C 365.87 318.48 365.19 318.97 364.52 319.46 C 361.25 312.63 357.96 305.80 354.69 298.97 C 354.12 298.99 352.98 299.02 352.41 299.04 M 282.10 318.34 C 285.12 319.53 288.06 320.91 291.04 322.22 C 303.10 316.94 314.94 311.15 327.10 306.12 C 312.14 310.33 297.13 314.40 282.10 318.34 M 129.84 307.06 C 141.34 311.88 152.62 317.23 164.05 322.22 C 166.94 320.94 169.79 319.55 172.76 318.49 C 158.42 314.84 144.18 310.73 129.84 307.06 M 170.16 324.97 C 178.62 328.74 187.05 332.59 195.55 336.29 C 197.92 333.05 200.25 329.79 202.66 326.58 C 195.07 324.75 187.62 322.25 179.97 320.71 C 176.57 321.81 173.44 323.57 170.16 324.97 M 253.02 326.27 C 255.50 329.54 257.97 332.82 260.43 336.11 C 268.60 332.40 276.78 328.71 284.96 325.00 C 281.30 323.65 277.91 321.14 274.02 320.69 C 266.98 322.37 260.04 324.49 253.02 326.27 M 136.51 340.20 C 139.13 343.65 141.69 347.14 144.36 350.55 C 158.69 346.73 172.98 342.74 187.33 338.97 C 187.67 338.87 188.37 338.67 188.72 338.58 C 180.38 335.24 172.30 331.28 164.04 327.75 C 154.85 331.87 145.69 336.06 136.51 340.20 M 207.74 328.01 C 206.12 330.29 204.48 332.57 202.76 334.79 C 207.95 333.35 213.10 331.77 218.37 330.68 C 214.78 329.99 211.28 328.90 207.74 328.01 M 236.27 330.67 C 242.09 331.88 247.79 333.60 253.52 335.20 C 251.61 332.73 249.75 330.23 247.89 327.73 C 244.00 328.66 240.20 329.92 236.27 330.67 M 266.58 338.73 C 281.46 342.54 296.24 346.69 311.08 350.63 C 313.68 347.16 316.21 343.63 318.76 340.12 C 309.52 336.01 300.31 331.81 291.05 327.75 C 282.87 331.36 274.80 335.21 266.58 338.73 M 203.14 339.78 C 211.43 343.39 219.65 347.18 227.93 350.82 C 235.97 347.19 244.01 343.54 252.05 339.91 C 244.96 338.00 237.88 336.11 230.80 334.17 C 229.25 333.82 227.65 333.14 226.06 333.63 C 218.40 335.60 210.80 337.82 203.14 339.78 M 68.03 371.28 C 91.72 364.80 115.43 358.42 139.12 351.98 C 136.70 348.77 134.29 345.54 131.86 342.33 C 110.57 351.96 89.26 361.53 68.03 371.28 M 147.56 354.88 C 153.40 362.64 159.24 370.40 165.08 378.17 C 173.63 366.51 182.01 354.73 190.66 343.16 C 176.31 347.14 161.92 350.96 147.56 354.88 M 172.86 375.86 C 189.16 368.30 205.57 360.95 221.96 353.58 C 213.65 350.03 205.46 346.17 197.16 342.58 C 189.04 353.66 181.07 364.85 172.86 375.86 M 233.88 353.56 C 250.80 361.12 267.80 368.52 284.59 376.37 C 275.87 365.14 267.47 353.65 258.86 342.33 C 250.51 346.02 242.25 349.92 233.88 353.56 M 266.07 343.63 C 274.59 354.92 283.12 366.20 291.57 377.54 C 296.99 369.99 302.51 362.50 307.96 354.97 C 294.00 351.17 280.00 347.52 266.07 343.63 M 316.29 352.03 C 340.92 358.65 365.53 365.32 390.16 371.90 C 367.78 362.33 345.70 352.06 323.43 342.22 C 321.04 345.48 318.66 348.75 316.29 352.03 M 31.56 384.74 C 23.89 386.35 16.85 390.77 12.06 396.97 C 2.25 409.11 2.83 428.09 13.37 439.61 C 23.59 451.71 42.72 454.58 56.05 446.01 C 69.39 438.13 75.56 420.38 69.92 405.92 C 64.62 390.66 47.31 381.08 31.56 384.74 M 158.48 384.64 C 152.36 385.81 146.57 388.69 141.97 392.89 C 130.22 403.11 127.52 421.89 136.01 434.97 C 144.50 449.21 164.02 455.04 179.00 448.01 C 193.67 441.83 202.32 424.34 197.86 408.96 C 193.72 392.17 175.33 380.98 158.48 384.64 M 284.56 384.74 C 276.88 386.35 269.84 390.77 265.05 396.98 C 255.26 409.11 255.83 428.07 266.35 439.59 C 276.40 451.49 295.08 454.52 308.38 446.41 C 322.14 438.71 328.66 420.65 322.92 405.95 C 317.64 390.69 300.32 381.06 284.56 384.74 M 410.58 384.73 C 401.89 386.54 394.04 391.97 389.29 399.47 C 380.97 412.00 382.74 430.00 393.34 440.67 C 403.74 451.92 422.11 454.28 435.02 446.03 C 448.38 438.15 454.56 420.38 448.91 405.91 C 443.62 390.67 426.32 381.08 410.58 384.73 Z" />
<path fill="#ffffff" opacity="1.00" d=" M 157.52 109.39 C 161.66 100.36 169.46 92.17 179.42 89.99 C 178.76 91.86 176.70 92.16 175.17 93.01 C 165.91 97.38 159.34 106.34 156.75 116.13 C 153.74 127.02 155.36 138.86 160.32 148.93 C 159.97 149.09 159.26 149.41 158.90 149.56 C 152.74 137.20 151.74 122.08 157.52 109.39 Z" />
<path fill="#ffffff" opacity="1.00" d=" M 147.04 140.99 C 144.20 133.26 144.14 124.59 146.90 116.83 C 147.27 116.95 148.00 117.19 148.37 117.31 C 145.16 125.81 146.34 135.10 149.36 143.45 C 148.11 143.04 147.33 142.22 147.04 140.99 Z" />
</g>
</svg>
